<mxfile host="app.diagrams.net" modified="2023-03-27T13:57:25.514Z" agent="Mozilla/5.0 (Windows NT 10.0; Win64; x64) AppleWebKit/537.36 (KHTML, like Gecko) Chrome/111.0.0.0 Safari/537.36" etag="I1wcsEPAyz9A9KzC1ktH" version="21.1.1" type="device">
  <diagram id="qG1slWD3dmA3rreK9aKE" name="PÃ¡gina-2">
    <mxGraphModel dx="1909" dy="951" grid="1" gridSize="10" guides="1" tooltips="1" connect="1" arrows="1" fold="1" page="1" pageScale="1" pageWidth="827" pageHeight="1169" math="0" shadow="0">
      <root>
        <mxCell id="0" />
        <mxCell id="1" parent="0" />
        <mxCell id="RvWI8YlqMcORrtqMFk2Z-29" value="" style="edgeStyle=orthogonalEdgeStyle;rounded=0;orthogonalLoop=1;jettySize=auto;html=1;" edge="1" parent="1" source="RvWI8YlqMcORrtqMFk2Z-1" target="RvWI8YlqMcORrtqMFk2Z-28">
          <mxGeometry relative="1" as="geometry" />
        </mxCell>
        <mxCell id="RvWI8YlqMcORrtqMFk2Z-1" value="inicio" style="strokeWidth=2;html=1;shape=mxgraph.flowchart.terminator;whiteSpace=wrap;" vertex="1" parent="1">
          <mxGeometry x="364" y="40" width="100" height="60" as="geometry" />
        </mxCell>
        <mxCell id="RvWI8YlqMcORrtqMFk2Z-31" value="" style="edgeStyle=orthogonalEdgeStyle;rounded=0;orthogonalLoop=1;jettySize=auto;html=1;" edge="1" parent="1" source="RvWI8YlqMcORrtqMFk2Z-28" target="RvWI8YlqMcORrtqMFk2Z-30">
          <mxGeometry relative="1" as="geometry" />
        </mxCell>
        <mxCell id="RvWI8YlqMcORrtqMFk2Z-34" value="" style="edgeStyle=orthogonalEdgeStyle;rounded=0;orthogonalLoop=1;jettySize=auto;html=1;" edge="1" parent="1" source="RvWI8YlqMcORrtqMFk2Z-28" target="RvWI8YlqMcORrtqMFk2Z-33">
          <mxGeometry relative="1" as="geometry" />
        </mxCell>
        <mxCell id="RvWI8YlqMcORrtqMFk2Z-35" style="edgeStyle=orthogonalEdgeStyle;rounded=0;orthogonalLoop=1;jettySize=auto;html=1;exitX=0.5;exitY=1;exitDx=0;exitDy=0;exitPerimeter=0;entryX=0.5;entryY=0.125;entryDx=0;entryDy=0;entryPerimeter=0;" edge="1" parent="1" source="RvWI8YlqMcORrtqMFk2Z-28" target="RvWI8YlqMcORrtqMFk2Z-32">
          <mxGeometry relative="1" as="geometry" />
        </mxCell>
        <mxCell id="RvWI8YlqMcORrtqMFk2Z-28" value="qual as notas?" style="strokeWidth=2;html=1;shape=mxgraph.flowchart.display;whiteSpace=wrap;" vertex="1" parent="1">
          <mxGeometry x="364" y="130" width="100" height="60" as="geometry" />
        </mxCell>
        <mxCell id="RvWI8YlqMcORrtqMFk2Z-39" style="edgeStyle=orthogonalEdgeStyle;rounded=0;orthogonalLoop=1;jettySize=auto;html=1;entryX=0;entryY=0.5;entryDx=0;entryDy=0;" edge="1" parent="1" source="RvWI8YlqMcORrtqMFk2Z-30" target="RvWI8YlqMcORrtqMFk2Z-36">
          <mxGeometry relative="1" as="geometry">
            <Array as="points">
              <mxPoint x="280" y="360" />
            </Array>
          </mxGeometry>
        </mxCell>
        <mxCell id="RvWI8YlqMcORrtqMFk2Z-30" value="nota3" style="shape=manualInput;whiteSpace=wrap;html=1;" vertex="1" parent="1">
          <mxGeometry x="240" y="120" width="80" height="80" as="geometry" />
        </mxCell>
        <mxCell id="RvWI8YlqMcORrtqMFk2Z-37" value="" style="edgeStyle=orthogonalEdgeStyle;rounded=0;orthogonalLoop=1;jettySize=auto;html=1;" edge="1" parent="1" source="RvWI8YlqMcORrtqMFk2Z-32" target="RvWI8YlqMcORrtqMFk2Z-36">
          <mxGeometry relative="1" as="geometry" />
        </mxCell>
        <mxCell id="RvWI8YlqMcORrtqMFk2Z-32" value="nota2" style="shape=manualInput;whiteSpace=wrap;html=1;" vertex="1" parent="1">
          <mxGeometry x="374" y="210" width="80" height="80" as="geometry" />
        </mxCell>
        <mxCell id="RvWI8YlqMcORrtqMFk2Z-38" style="edgeStyle=orthogonalEdgeStyle;rounded=0;orthogonalLoop=1;jettySize=auto;html=1;entryX=1;entryY=0.5;entryDx=0;entryDy=0;" edge="1" parent="1" source="RvWI8YlqMcORrtqMFk2Z-33" target="RvWI8YlqMcORrtqMFk2Z-36">
          <mxGeometry relative="1" as="geometry">
            <Array as="points">
              <mxPoint x="550" y="360" />
            </Array>
          </mxGeometry>
        </mxCell>
        <mxCell id="RvWI8YlqMcORrtqMFk2Z-33" value="nota1" style="shape=manualInput;whiteSpace=wrap;html=1;" vertex="1" parent="1">
          <mxGeometry x="510" y="120" width="80" height="80" as="geometry" />
        </mxCell>
        <mxCell id="RvWI8YlqMcORrtqMFk2Z-41" value="" style="edgeStyle=orthogonalEdgeStyle;rounded=0;orthogonalLoop=1;jettySize=auto;html=1;" edge="1" parent="1" source="RvWI8YlqMcORrtqMFk2Z-36" target="RvWI8YlqMcORrtqMFk2Z-40">
          <mxGeometry relative="1" as="geometry" />
        </mxCell>
        <mxCell id="RvWI8YlqMcORrtqMFk2Z-36" value="validar as notas" style="rhombus;whiteSpace=wrap;html=1;" vertex="1" parent="1">
          <mxGeometry x="366" y="320" width="96" height="80" as="geometry" />
        </mxCell>
        <mxCell id="RvWI8YlqMcORrtqMFk2Z-43" value="" style="edgeStyle=orthogonalEdgeStyle;rounded=0;orthogonalLoop=1;jettySize=auto;html=1;" edge="1" parent="1" source="RvWI8YlqMcORrtqMFk2Z-40" target="RvWI8YlqMcORrtqMFk2Z-42">
          <mxGeometry relative="1" as="geometry" />
        </mxCell>
        <mxCell id="RvWI8YlqMcORrtqMFk2Z-40" value="soma das 3&amp;nbsp; notas" style="whiteSpace=wrap;html=1;" vertex="1" parent="1">
          <mxGeometry x="354" y="430" width="120" height="60" as="geometry" />
        </mxCell>
        <mxCell id="RvWI8YlqMcORrtqMFk2Z-45" value="" style="edgeStyle=orthogonalEdgeStyle;rounded=0;orthogonalLoop=1;jettySize=auto;html=1;" edge="1" parent="1" source="RvWI8YlqMcORrtqMFk2Z-42" target="RvWI8YlqMcORrtqMFk2Z-44">
          <mxGeometry relative="1" as="geometry" />
        </mxCell>
        <mxCell id="RvWI8YlqMcORrtqMFk2Z-42" value="resultado das notas&lt;br&gt;dividido por 3" style="whiteSpace=wrap;html=1;" vertex="1" parent="1">
          <mxGeometry x="354" y="525" width="120" height="60" as="geometry" />
        </mxCell>
        <mxCell id="RvWI8YlqMcORrtqMFk2Z-47" value="" style="edgeStyle=orthogonalEdgeStyle;rounded=0;orthogonalLoop=1;jettySize=auto;html=1;" edge="1" parent="1" source="RvWI8YlqMcORrtqMFk2Z-44" target="RvWI8YlqMcORrtqMFk2Z-46">
          <mxGeometry relative="1" as="geometry">
            <Array as="points">
              <mxPoint x="544" y="645" />
            </Array>
          </mxGeometry>
        </mxCell>
        <mxCell id="RvWI8YlqMcORrtqMFk2Z-49" value="" style="edgeStyle=orthogonalEdgeStyle;rounded=0;orthogonalLoop=1;jettySize=auto;html=1;" edge="1" parent="1" source="RvWI8YlqMcORrtqMFk2Z-44" target="RvWI8YlqMcORrtqMFk2Z-48">
          <mxGeometry relative="1" as="geometry" />
        </mxCell>
        <mxCell id="RvWI8YlqMcORrtqMFk2Z-44" value="aqui temos a media" style="shape=parallelogram;perimeter=parallelogramPerimeter;whiteSpace=wrap;html=1;fixedSize=1;" vertex="1" parent="1">
          <mxGeometry x="344" y="610" width="140" height="70" as="geometry" />
        </mxCell>
        <mxCell id="RvWI8YlqMcORrtqMFk2Z-53" style="edgeStyle=orthogonalEdgeStyle;rounded=0;orthogonalLoop=1;jettySize=auto;html=1;entryX=1;entryY=0.5;entryDx=0;entryDy=0;" edge="1" parent="1" source="RvWI8YlqMcORrtqMFk2Z-46" target="RvWI8YlqMcORrtqMFk2Z-52">
          <mxGeometry relative="1" as="geometry">
            <Array as="points">
              <mxPoint x="544" y="820" />
            </Array>
          </mxGeometry>
        </mxCell>
        <mxCell id="RvWI8YlqMcORrtqMFk2Z-46" value="=&amp;lt;5" style="whiteSpace=wrap;html=1;" vertex="1" parent="1">
          <mxGeometry x="484" y="700" width="120" height="60" as="geometry" />
        </mxCell>
        <mxCell id="RvWI8YlqMcORrtqMFk2Z-54" style="edgeStyle=orthogonalEdgeStyle;rounded=0;orthogonalLoop=1;jettySize=auto;html=1;entryX=0;entryY=0.75;entryDx=0;entryDy=0;" edge="1" parent="1" source="RvWI8YlqMcORrtqMFk2Z-48" target="RvWI8YlqMcORrtqMFk2Z-52">
          <mxGeometry relative="1" as="geometry">
            <Array as="points">
              <mxPoint x="280" y="835" />
              <mxPoint x="360" y="835" />
              <mxPoint x="360" y="830" />
              <mxPoint x="334" y="830" />
              <mxPoint x="334" y="835" />
            </Array>
          </mxGeometry>
        </mxCell>
        <mxCell id="RvWI8YlqMcORrtqMFk2Z-48" value="=&amp;gt;5" style="whiteSpace=wrap;html=1;" vertex="1" parent="1">
          <mxGeometry x="220" y="700" width="120" height="60" as="geometry" />
        </mxCell>
        <mxCell id="RvWI8YlqMcORrtqMFk2Z-50" value="aprovado" style="text;html=1;strokeColor=none;fillColor=none;align=center;verticalAlign=middle;whiteSpace=wrap;rounded=0;" vertex="1" parent="1">
          <mxGeometry x="210" y="670" width="60" height="30" as="geometry" />
        </mxCell>
        <mxCell id="RvWI8YlqMcORrtqMFk2Z-51" value="reprovado" style="text;html=1;strokeColor=none;fillColor=none;align=center;verticalAlign=middle;whiteSpace=wrap;rounded=0;" vertex="1" parent="1">
          <mxGeometry x="560" y="670" width="60" height="30" as="geometry" />
        </mxCell>
        <mxCell id="RvWI8YlqMcORrtqMFk2Z-56" value="" style="edgeStyle=orthogonalEdgeStyle;rounded=0;orthogonalLoop=1;jettySize=auto;html=1;" edge="1" parent="1" source="RvWI8YlqMcORrtqMFk2Z-52" target="RvWI8YlqMcORrtqMFk2Z-55">
          <mxGeometry relative="1" as="geometry" />
        </mxCell>
        <mxCell id="RvWI8YlqMcORrtqMFk2Z-52" value="repassar ao aluno" style="rounded=0;whiteSpace=wrap;html=1;" vertex="1" parent="1">
          <mxGeometry x="354" y="790" width="120" height="60" as="geometry" />
        </mxCell>
        <mxCell id="RvWI8YlqMcORrtqMFk2Z-55" value="fim" style="strokeWidth=2;html=1;shape=mxgraph.flowchart.terminator;whiteSpace=wrap;" vertex="1" parent="1">
          <mxGeometry x="364" y="900" width="100" height="60" as="geometry" />
        </mxCell>
      </root>
    </mxGraphModel>
  </diagram>
</mxfile>
